<svg xmlns="http://www.w3.org/2000/svg" xmlns:xlink="http://www.w3.org/1999/xlink" viewBox="0 0 4714.54 7171.16">
  <defs>
    <style>
      .a,
      .b {
        fill: #1a2e35;
      }

      .a {
        fill-opacity: 0.58;
      }

      .c {
        fill: #fff;
      }

      .d {
        fill: url(#a);
      }

      .e {
        font-size: 153.21px;
        fill: #e9e9e4;
        font-family: Montserrat-Regular, Montserrat Regular;
      }

      .f {
        fill: #ff4f5b;
      }

      .g {
        fill: url(#b);
      }

      .h {
        fill: #e1e1e1;
      }

      .i {
        fill: url(#c);
      }

      .j {
        fill: url(#d);
      }

      .k {
        fill: url(#e);
      }

      .l {
        fill: url(#f);
      }

      .m {
        fill: url(#g);
      }

      .n {
        fill: url(#h);
      }

      .o {
        fill: url(#i);
      }

      .p {
        fill: url(#j);
      }

      .q {
        fill: url(#k);
      }

      .r {
        fill: url(#l);
      }

      .s {
        fill: url(#m);
      }

      .t {
        fill: url(#n);
      }

      .u {
        fill: url(#o);
      }

      .af,
      .v {
        opacity: 0.2;
      }

      .w {
        fill: url(#y);
      }

      .x {
        fill: url(#z);
      }

      .y {
        fill: url(#aa);
      }

      .z {
        fill: url(#ab);
      }

      .aa {
        fill: url(#ac);
      }

      .ab {
        fill: #ffbf9d;
      }

      .ac {
        fill: url(#ad);
      }

      .ad {
        fill: #ff9a6c;
      }

      .ae {
        fill: #375a64;
      }
    </style>
    <linearGradient id="a" x1="2670.53" y1="4424.4" x2="4091.76" y2="4424.4" gradientUnits="userSpaceOnUse">
      <stop offset="0" stop-color="#24809e" />
      <stop offset="0.24" stop-color="#2e8f9b" />
      <stop offset="1" stop-color="#4cba91" />
    </linearGradient>
    <linearGradient id="b" x1="2493.5" y1="1536.57" x2="2968.63" y2="1536.57" gradientTransform="translate(4255.01 -1201.56) rotate(89.74)" xlink:href="#a" />
    <linearGradient id="c" x1="2620.93" y1="1869.71" x2="3489.74" y2="1869.71" gradientTransform="translate(-8.6 14.13) rotate(-0.26)" xlink:href="#a" />
    <linearGradient id="d" x1="2490.14" y1="2331.57" x2="2965.26" y2="2331.57" gradientTransform="translate(-10.73 12.62) rotate(-0.26)" xlink:href="#a" />
    <linearGradient id="e" x1="2486.64" y1="3160.71" x2="2961.77" y2="3160.71" xlink:href="#a" />
    <linearGradient id="f" x1="2617.57" y1="2664.71" x2="3486.39" y2="2664.71" gradientTransform="translate(-12.28 14.13) rotate(-0.26)" xlink:href="#a" />
    <linearGradient id="g" x1="2620.88" y1="3501.89" x2="2696.81" y2="3501.89" xlink:href="#a" />
    <linearGradient id="h" x1="2738.53" y1="3502.43" x2="2814.46" y2="3502.43" xlink:href="#a" />
    <linearGradient id="i" x1="2856.17" y1="3502.97" x2="2932.11" y2="3502.97" xlink:href="#a" />
    <linearGradient id="j" x1="2973.83" y1="3503.51" x2="3049.75" y2="3503.51" xlink:href="#a" />
    <linearGradient id="k" x1="3091.47" y1="3504.05" x2="3167.41" y2="3504.05" xlink:href="#a" />
    <linearGradient id="l" x1="3209.12" y1="3504.59" x2="3285.06" y2="3504.59" xlink:href="#a" />
    <linearGradient id="m" x1="3326.78" y1="3505.15" x2="3402.72" y2="3505.15" xlink:href="#a" />
    <linearGradient id="n" x1="3444.43" y1="3505.69" x2="3520.35" y2="3505.69" xlink:href="#a" />
    <linearGradient id="o" x1="3562.07" y1="3506.23" x2="3638.01" y2="3506.23" xlink:href="#a" />
    <linearGradient id="y" x1="3323.41" y1="836.66" x2="3567.82" y2="836.66" xlink:href="#a" />
    <linearGradient id="z" x1="2996.26" y1="1093.81" x2="3867.92" y2="1093.81" xlink:href="#a" />
    <linearGradient id="aa" x1="821.72" y1="6985.89" x2="1401.51" y2="6985.89" gradientUnits="userSpaceOnUse">
      <stop offset="1" stop-color="#24809d" />
      <stop offset="1" stop-color="#2e8e9a" />
      <stop offset="1" stop-color="#4cb990" />
    </linearGradient>
    <linearGradient id="ab" x1="1670.12" y1="6985.29" x2="2249.92" y2="6985.29" xlink:href="#aa" />
    <linearGradient id="ac" x1="1675.68" y1="7070.99" x2="1775.4" y2="7070.99" gradientUnits="userSpaceOnUse">
      <stop offset="1" stop-color="#24809a" />
      <stop offset="1" stop-color="#2d8c97" />
      <stop offset="1" stop-color="#4db78e" />
    </linearGradient>
    <linearGradient id="ad" x1="420.69" y1="2509.93" x2="2380.8" y2="2509.93" gradientUnits="userSpaceOnUse">
      <stop offset="1" stop-color="#39b2db" />
      <stop offset="1" stop-color="#3cb4cd" />
      <stop offset="1" stop-color="#46baa2" />
    </linearGradient>
  </defs>
  <title>Asset 2</title>
  <path class="a" d="M4609.84,7167.05c0,2.26-1032,4.11-2304.81,4.11-1273.22,0-2305-1.85-2305-4.11s1031.81-4.11,2305-4.11C3577.81,7162.94,4609.84,7164.79,4609.84,7167.05Z" />
  <path class="b" d="M4291.48,5434.59l-1843.91-8.52c-221.77-1-400.75-181.59-399.81-403.36L2067.3,400c.94-221.89,181.62-401,403.52-400L4314.74,8.52c221.77,1,400.73,181.6,399.8,403.36L4695,5034.63C4694.06,5256.53,4513.38,5435.62,4291.48,5434.59Z" />
  <path class="c" d="M4312.11,168.07l-357.51-1.65c-47.94-.22-87,40.24-87.18,90.35l-.29,64.84c-.2,50.12-39.25,90.58-87.19,90.35l-696.85-3.22c-47.94-.21-86.64-41-86.43-91.15l.28-64.85c.21-50.11-38.49-90.93-86.44-91.15L2784.77,161l-312.9-1.44c-155.4-.72-281.94,124.71-282.6,280.11L2170.2,4951.81c-.66,155.33,124.69,281.78,280,282.5l1840.24,8.5c155.38.72,281.93-124.71,282.59-280.11l19.08-4512.15C4592.76,295.24,4467.42,168.79,4312.11,168.07Z" />
  <path class="d" d="M4064.45,4640.89,2696,4634.58c-14.17-.07-25.59-15.49-25.51-34.45l1.52-358c.07-19,11.63-34.28,25.8-34.22l1368.4,6.33c14.17.07,25.6,15.48,25.51,34.45l-1.51,358C4090.18,4625.64,4078.62,4641,4064.45,4640.89Z" />
  <text class="e" transform="matrix(0.96, 0, 0, 1, 3067.44, 4467.76)">SING UP</text>
  <rect class="f" x="2687.51" y="1299.19" width="87.11" height="474.76" transform="translate(1181.91 4260.51) rotate(-89.74)" />
  <rect class="g" x="2687.51" y="1299.19" width="87.11" height="474.76" transform="translate(1181.91 4260.51) rotate(-89.74)" />
  <path class="h" d="M4361,2028.67c-.07-.37,4,.21,10.84-2.55a29.17,29.17,0,0,0,17.88-24.84c-.05-29.44-.14-72.24-.25-127.18,0-27.67,0-58.38,0-92q0-12.62,0-25.76c.24-9,.22-17.29-5.17-24.18a27.23,27.23,0,0,0-21.83-11.26l-28.92,0-266.66-.52-1544.1-5.72a25,25,0,0,0-20.34,10.28c-5.13,6.53-4.91,14.24-4.79,24.13q-.12,28.1-.25,56-.24,55.85-.48,110.92-.12,27.54-.26,54.87c.3,8.72-.85,19.18.77,26a25.06,25.06,0,0,0,14.41,16.64,27.85,27.85,0,0,0,11.42,2l13.52.08,26.94.12,53.55.27,410,2.18,694.19,4.23,468,3.7,127.23,1.48,33.08.64c7.46.19,11.28.55,11.28.55s-3.82.3-11.28.43l-33.08.32-127.25.32c-110.86-.16-270.66-.37-468-.63l-694.19-2.18-410-1.62-53.56-.22-27-.11-13.51-.06a37.56,37.56,0,0,1-15.06-2.7,34.51,34.51,0,0,1-19.94-23c-1.45-5.22-1.13-10.51-1.15-14.76l.06-13.65q.11-27.35.22-54.87.22-55.08.45-110.92.12-27.91.23-56c.14-4.81-.27-9,.48-14.75a33.73,33.73,0,0,1,6.16-15,34.58,34.58,0,0,1,28.15-14.24c602.81,3.32,1148.61,6.34,1544.08,8.53l266.67,2q14.71.1,28.92.24a32.27,32.27,0,0,1,25.84,13.53c6.32,8,6.27,18.84,5.91,27.11q-.1,13.14-.2,25.75c-.3,33.6-.58,64.31-.81,92-.69,55-1.21,97.86-1.57,127.32a30.07,30.07,0,0,1-19.47,25.6C4364.93,2029.58,4361,2028.67,4361,2028.67Z" />
  <rect class="f" x="2621.1" y="1829" width="868.48" height="81.43" transform="translate(8.67 -14.09) rotate(0.26)" />
  <rect class="i" x="2621.1" y="1829" width="868.48" height="81.43" transform="translate(8.67 -14.09) rotate(0.26)" />
  <rect class="f" x="2490.32" y="2288.01" width="474.76" height="87.11" transform="translate(10.79 -12.57) rotate(0.26)" />
  <rect class="j" x="2490.32" y="2288.01" width="474.76" height="87.11" transform="translate(10.79 -12.57) rotate(0.26)" />
  <path class="h" d="M4348.78,2823.62c0-.32,3.87,0,10.94-2.06a38.31,38.31,0,0,0,23.38-20.93c3.16-6.49,3.48-14.38,3.19-23.4q0-13.45-.11-29.33c0-21.25-.08-45.7-.14-73.19s0-58.16,0-91.64V2557.4c.4-8.82-.66-17-5.39-24.36a36.15,36.15,0,0,0-20.06-15.55c-8.26-2.62-18.14-1.2-27.89-1.6l-265.76-.51-1538.73-5.71c-16.69-.41-32.1,13.21-33.7,29.71-.55,17.56-.29,37-.48,55.28q-.24,55.64-.49,110.53-.11,27.45-.24,54.68c.31,9.06-1,18.54,1.16,25.77a34.07,34.07,0,0,0,13.48,18.93c6.77,4.56,14.1,6.24,23,5.91l26.85.13,53.36.27,408.56,2.17c260.31,1.58,494.75,3,691.77,4.23l466.36,3.67,126.79,1.49,33,.63c7.42.2,11.23.55,11.23.55s-3.81.31-11.25.43c-7.77.09-18.74.19-33,.33l-126.79.32-466.38-.63-691.78-2.16-408.55-1.61-53.37-.22-26.85-.12c-9,.48-20.12-1.7-28.28-7.53a43.63,43.63,0,0,1-17.28-24.27c-2.75-10.35-1.11-19.34-1.52-28.33q.11-27.24.21-54.67.23-54.88.45-110.55c.21-18.78-.15-36.62.53-56.35,2.06-21.26,21.87-38.74,43.3-38.19l1538.71,8.5,265.75,1.95c9.66.51,19.41-1.05,29.4,2a41.27,41.27,0,0,1,22.79,17.89c5.3,8.12,6.43,18.46,5.91,27q-.11,13.11-.2,25.67c-.29,33.47-.58,64.08-.81,91.64s-.54,51.93-.76,73.19q-.18,15.85-.34,29.32c.16,8.8-.36,17.54-3.82,24.2A38.94,38.94,0,0,1,4360,2822.5C4352.65,2824.31,4348.78,2823.62,4348.78,2823.62Z" />
  <polygon class="f" points="2961.4 3205.36 2486.64 3203.17 2487.01 3116.06 2961.77 3118.24 2961.4 3205.36" />
  <polygon class="k" points="2961.4 3205.36 2486.64 3203.17 2487.01 3116.06 2961.77 3118.24 2961.4 3205.36" />
  <path class="h" d="M4345.26,3652.77c0-.33,3.9,0,10.94-2.06a38.3,38.3,0,0,0,23.39-20.93c3.15-6.49,3.48-14.39,3.19-23.4q-.06-13.47-.11-29.33c0-21.26-.07-45.7-.13-73.18s0-58.18,0-91.66q0-12.54,0-25.67c.37-8.81-.67-17-5.39-24.35a36.38,36.38,0,0,0-20.07-15.56c-8.26-2.6-18.14-1.19-27.91-1.59l-265.74-.52-1538.73-5.7c-16.7-.41-32.1,13.2-33.71,29.71-.55,17.56-.29,37-.47,55.28q-.24,55.62-.49,110.53-.12,27.45-.24,54.68c.31,9.05-1,18.51,1.15,25.76a34.08,34.08,0,0,0,13.48,18.93c6.77,4.56,14.1,6.26,23,5.92l26.85.12,53.37.27,408.54,2.17,691.77,4.23,466.36,3.68,126.8,1.5c14.24.27,25.2.46,33,.63,7.43.2,11.23.54,11.23.54s-3.8.3-11.23.43l-33,.32-126.82.33c-110.46-.16-269.7-.36-466.37-.63l-691.77-2.17c-130.21-.52-266.87-1-408.56-1.6l-53.36-.23-26.85-.11c-9,.48-20.13-1.71-28.28-7.54a43.71,43.71,0,0,1-17.3-24.26c-2.74-10.35-1.1-19.35-1.51-28.34q.12-27.24.22-54.67.21-54.89.44-110.55c.22-18.78-.14-36.61.54-56.35,2-21.26,21.87-38.73,43.3-38.19l1538.72,8.51,265.74,2c9.66.5,19.41-1.05,29.4,2a41.31,41.31,0,0,1,22.79,17.9c5.3,8.11,6.44,18.46,5.91,27-.07,8.72-.14,17.29-.21,25.65-.29,33.48-.56,64.09-.8,91.64s-.54,51.94-.75,73.2c-.13,10.56-.26,20.35-.36,29.31.16,8.82-.36,17.54-3.83,24.21a39,39,0,0,1-24.86,21.06C4349.16,3653.45,4345.26,3652.77,4345.26,3652.77Z" />
  <rect class="f" x="2617.73" y="2624" width="868.48" height="81.43" transform="translate(12.34 -14.07) rotate(0.26)" />
  <rect class="l" x="2617.73" y="2624" width="868.48" height="81.43" transform="translate(12.34 -14.07) rotate(0.26)" />
  <path class="m" d="M2696.81,3502.07c-.1,22.35-17.17,40.4-38.14,40.31s-37.88-18.32-37.79-40.67,17.17-40.42,38.13-40.31S2696.9,3479.69,2696.81,3502.07Z" />
  <path class="n" d="M2814.46,3502.61c-.1,22.35-17.17,40.4-38.13,40.31s-37.89-18.3-37.8-40.67,17.17-40.4,38.14-40.31S2814.56,3480.24,2814.46,3502.61Z" />
  <path class="o" d="M2932.11,3503.15c-.09,22.36-17.17,40.42-38.14,40.31s-37.89-18.3-37.8-40.67,17.18-40.4,38.14-40.31S2932.21,3480.78,2932.11,3503.15Z" />
  <path class="p" d="M3049.75,3503.69c-.09,22.36-17.16,40.42-38.13,40.31s-37.89-18.3-37.79-40.67S2991,3462.93,3012,3463,3049.86,3481.34,3049.75,3503.69Z" />
  <path class="q" d="M3167.41,3504.23c-.09,22.37-17.17,40.42-38.13,40.31s-37.9-18.3-37.81-40.65,17.18-40.42,38.15-40.33S3167.5,3481.88,3167.41,3504.23Z" />
  <path class="r" d="M3285.06,3504.77c-.09,22.38-17.16,40.42-38.15,40.31s-37.87-18.29-37.79-40.65,17.17-40.42,38.14-40.33S3285.15,3482.42,3285.06,3504.77Z" />
  <path class="s" d="M3402.72,3505.31c-.11,22.38-17.19,40.42-38.15,40.33s-37.88-18.31-37.79-40.67,17.16-40.42,38.13-40.31S3402.81,3483,3402.72,3505.31Z" />
  <path class="t" d="M3520.35,3505.85c-.09,22.38-17.16,40.42-38.13,40.33s-37.89-18.29-37.79-40.67,17.17-40.42,38.13-40.31S3520.46,3483.5,3520.35,3505.85Z" />
  <path class="u" d="M3638,3506.41c-.09,22.36-17.16,40.41-38.12,40.31s-37.9-18.29-37.81-40.67,17.18-40.4,38.15-40.31S3638.11,3484,3638,3506.41Z" />
  <g class="v">
    <path class="m" d="M2696.81,3502.07c-.1,22.35-17.17,40.4-38.14,40.31s-37.88-18.32-37.79-40.67,17.17-40.42,38.13-40.31S2696.9,3479.69,2696.81,3502.07Z" />
    <path class="n" d="M2814.46,3502.61c-.1,22.35-17.17,40.4-38.13,40.31s-37.89-18.3-37.8-40.67,17.17-40.4,38.14-40.31S2814.56,3480.24,2814.46,3502.61Z" />
    <path class="o" d="M2932.11,3503.15c-.09,22.36-17.17,40.42-38.14,40.31s-37.89-18.3-37.8-40.67,17.18-40.4,38.14-40.31S2932.21,3480.78,2932.11,3503.15Z" />
    <path class="p" d="M3049.75,3503.69c-.09,22.36-17.16,40.42-38.13,40.31s-37.89-18.3-37.79-40.67S2991,3462.93,3012,3463,3049.86,3481.34,3049.75,3503.69Z" />
    <path class="q" d="M3167.41,3504.23c-.09,22.37-17.17,40.42-38.13,40.31s-37.9-18.3-37.81-40.65,17.18-40.42,38.15-40.33S3167.5,3481.88,3167.41,3504.23Z" />
    <path class="r" d="M3285.06,3504.77c-.09,22.38-17.16,40.42-38.15,40.31s-37.87-18.29-37.79-40.65,17.17-40.42,38.14-40.33S3285.15,3482.42,3285.06,3504.77Z" />
    <path class="s" d="M3402.72,3505.31c-.11,22.38-17.19,40.42-38.15,40.33s-37.88-18.31-37.79-40.67,17.16-40.42,38.13-40.31S3402.81,3483,3402.72,3505.31Z" />
    <path class="t" d="M3520.35,3505.85c-.09,22.38-17.16,40.42-38.13,40.33s-37.89-18.29-37.79-40.67,17.17-40.42,38.13-40.31S3520.46,3483.5,3520.35,3505.85Z" />
    <path class="u" d="M3638,3506.41c-.09,22.36-17.16,40.41-38.12,40.31s-37.9-18.29-37.81-40.67,17.18-40.4,38.15-40.31S3638.11,3484,3638,3506.41Z" />
  </g>
  <path class="f" d="M3470.92,841.24c24.84-10.42,42.51-36,42.65-66.23.16-39.54-29.76-71.74-66.85-71.91s-67.26,31.74-67.42,71.29c-.13,30.47,17.66,56.39,42.78,66.85-103.32,15.57-98.64,127.86-98.64,127.86l244.33,1.12S3573.34,856.71,3470.92,841.24Z" />
  <path class="w" d="M3470.92,841.24c24.84-10.42,42.51-36,42.65-66.23.16-39.54-29.76-71.74-66.85-71.91s-67.26,31.74-67.42,71.29c-.13,30.47,17.66,56.39,42.78,66.85-103.32,15.57-98.64,127.86-98.64,127.86l244.33,1.12S3573.34,856.71,3470.92,841.24Z" />
  <polygon class="f" points="3867.49 1147.9 2996.26 1143.88 2996.71 1039.71 3867.92 1043.73 3867.49 1147.9" />
  <polygon class="x" points="3867.49 1147.9 2996.26 1143.88 2996.71 1039.71 3867.92 1043.73 3867.49 1147.9" />
  <path class="y" d="M1169.1,7030.72V6838.44l-344.53-2.3-2.85,290.46,21.35,1.6c95,6.15,483.64,15.08,547.32-4.63C1461.41,7101.58,1169.1,7030.72,1169.1,7030.72Z" />
  <path class="b" d="M1398.54,7105.53c0,3.25-128.88,5.86-287.82,5.86s-287.84-2.61-287.84-5.86,128.85-5.83,287.84-5.83S1398.54,7102.31,1398.54,7105.53Z" />
  <path class="b" d="M1175.16,7070c-2.83-1.5-.4-11.66,7-21.66s16.38-15.39,18.63-13.13-2.41,10.78-9.21,20.06S1178,7071.49,1175.16,7070Z" />
  <path class="b" d="M1197.14,7082.62c-3-1.12-1.44-12.51,5.33-24.49s15.7-19.23,18.21-17.25-1.76,11.83-8,23S1200.2,7083.8,1197.14,7082.62Z" />
  <path class="b" d="M926.68,7104.68c-1.35.94-6.48-4.11-13.93-12.58s-17.32-20.26-30.22-30.26-26.87-15-37.27-16.29-17.35.22-17.94-1.47c-.61-1.25,5.8-6.06,18.21-6.8,12.24-.84,29.52,3.82,44.14,15.27s23.83,24.89,29.76,34.68S928,7103.78,926.68,7104.68Z" />
  <path class="b" d="M1176.2,7033.81c1.69,2.72-4.22,9.39-14.06,13s-18.66,2.37-19.12-.79,6.47-7,15.09-10.18S1174.5,7031,1176.2,7033.81Z" />
  <path class="b" d="M1170.8,7015.22c.31,3.23-8.87,6-20.5,6.15s-20.89-2.35-20.66-5.58,9.39-6,20.5-6.12S1170.48,7012,1170.8,7015.22Z" />
  <path class="z" d="M2017.5,7030.72V6838.44l-344.54-2.3-2.85,287.52,21.35,1.58c95,6.14,483.65,18,547.33-1.67C2309.81,7101.58,2017.5,7030.72,2017.5,7030.72Z" />
  <path class="b" d="M2246.94,7106c0,3.23-128.87,5.86-287.82,5.86s-287.84-2.63-287.84-5.86,128.85-5.86,287.84-5.86S2246.94,7102.74,2246.94,7106Z" />
  <path class="b" d="M2023.56,7070c-2.83-1.5-.4-11.66,7-21.66s16.38-15.39,18.63-13.13-2.42,10.78-9.21,20.06S2026.44,7071.49,2023.56,7070Z" />
  <path class="b" d="M2045.55,7082.62c-3-1.12-1.45-12.51,5.33-24.49s15.7-19.23,18.2-17.25-1.75,11.83-8,23S2048.6,7083.8,2045.55,7082.62Z" />
  <path class="aa" d="M1775.08,7104.68c-1.34.94-6.48-4.11-13.93-12.58s-17.33-20.26-30.22-30.26-26.86-15-37.28-16.29-17.34.22-17.93-1.47c-.6-1.25,5.8-6.06,18.21-6.8,12.23-.84,29.53,3.82,44.14,15.27s23.83,24.89,29.76,34.68S1776.38,7103.78,1775.08,7104.68Z" />
  <path class="b" d="M2024.61,7033.81c1.68,2.72-4.23,9.39-14.06,13s-18.66,2.37-19.14-.79,6.48-7,15.09-10.18S2022.91,7031,2024.61,7033.81Z" />
  <path class="b" d="M2019.2,7015.22c.31,3.23-8.87,6-20.5,6.15s-20.88-2.35-20.66-5.58,9.4-6,20.51-6.12S2018.89,7012,2019.2,7015.22Z" />
  <path class="ab" d="M3286.7,1324.84c-9-9.26-31.1-4.89-31.1-4.89s3.86-26.26-.22-39-32.39-10.25-32.39-10.25-1.76-12.22.72-32c.64-4.94-2.11-8.59-6.58-11.3-13.41-8.12-42.34-7.73-42.34-7.73-17.36-12.4,52.85-110.56,78.88-142,25.72-31,21.39-55.91-1.82-55.88-15.83,0-97.78,94.4-122.8,126.08s-92,119.78-94.32,49.45-30.55-123.5-48.2-132.58-36.71,12.21-26.94,31.74c7.91,15.78,12.9,46.18,15.73,69.17a167.61,167.61,0,0,1-2.59,56.85c-11.73,52.68-24.33,86.88-30.25,101.5l-1.73-1S2450.23,1793.45,2414.87,1827c-31.82,30.2-669.2-35.73-796.9-49.29-34.89-3.9-86.59-10.92-131.37-9-55.39,2.43-65.25,10.28-120.68,11-169.76,2.27-311.23,18.8-416.51,36.62a344.9,344.9,0,0,0-271,235.09C549.49,2453.74,257.91,3405.94,205.94,3940.89c-40.92,76.94-86.65,166.81-105.23,217.38C64.6,4256.59,73.37,4260,85.53,4262.21c32.67,6,70.07-170.53,84-127.93s-70.85,210.65-36.43,215.56c44.86,6.41,80.61-179.15,84.8-194.64,4.06-15,26.7-10,22.17,3.82-6.5,19.79-69.74,229.47-25.75,236.18,24.38,3.74,27-40.69,27-40.69s44.71-200.52,65.36-196.66c21,3.93-1.3,122.55-11.65,162-10.23,39,4.18,59.72,25.21,49.91,14.34-6.7,48.87-126.83,58.19-166.09s32.95-147.42,64.68-84.63,79.77,99.11,99.61,99.9,28.15-26.53,11-40.14c-13.83-11-31.18-36.43-43.43-56.09a167.25,167.25,0,0,1-21.62-52.63c-15.79-71.92-15.67-113.73-15.67-113.73l-3.67-23.11C519.75,3684,664.81,2952.57,873.19,2485.31L959,2661.89l37.25,130.72L767.56,3357.55l975.63-12.86-145.44-560.45,176.71-584.41h0c191.25,4.27,682.44,11.39,765-25.5,102.91-46,635.5-717.36,635.5-717.36h0c36-28.64,72.56-59.47,99.55-86.37C3274.47,1370.59,3306.21,1344.9,3286.7,1324.84Z" />
  <path class="ac" d="M725.07,2941.62c28.24-96.61,173.68-574.34,173.68-574.34s71.38,389.49,52.62,436.39c-21.61,54-61.34,115.9-61.34,115.9-165,251.22-143.31,376.77-143.31,376.77L1743.19,3266c2.42-139.36-80.06-463.36-97.31-515s40-221,40-221,112.61-114.37,108.25-173.23c-8.79-118.56-19.63-156.87-19.63-156.87l606.34,22.32-19.05-411.41-871.57-87.21c-30.17,85.82-304.63,43.77-304.63,43.77-296.31,9.73-314.25,64.22-437.81,159.9s-327,917.33-327,917.33Z" />
  <path class="b" d="M1314.39,2844.44c0,1.56-20.07,2.88-52.52,2.66s-77.25-2.22-126.52-7.16-93.61-11.93-125.44-18.19-51.22-11.52-50.93-13.06,20.22.77,52.26,4.9,76.27,9.76,125.28,14.7,93.45,8.23,125.68,10.53S1314.41,2842.75,1314.39,2844.44Z" />
  <path class="b" d="M1382.61,2759.68c.41,1.43-20.14,9.25-54.41,18.55a982.47,982.47,0,0,1-136.21,26c-53.88,6.36-103.06,7.68-138.54,6.65s-57.3-3.82-57.22-5.3c.07-1.73,22-1.88,57.2-3s83.82-3.69,137.18-10,101.17-15.23,135.68-22.4S1382.12,2758,1382.61,2759.68Z" />
  <path class="b" d="M1717.8,2381.67c1.55.33-1,19.75-6.82,50.84s-14.91,73.78-26.39,120.61-23.17,89-32.42,119.18-15.94,48.65-17.48,48.21,2.32-19.62,9.5-50.37c8.49-35.07,18.26-75.34,29-119.8,11-44.39,21-84.6,29.69-119.63C1710.76,2400.14,1716.19,2381.33,1717.8,2381.67Z" />
  <path class="b" d="M735.53,2884.39c-.85,3.11-69.59-12.91-153.49-35.8s-151.28-44-150.42-47.12,69.56,12.93,153.49,35.82S736.38,2881.27,735.53,2884.39Z" />
  <path class="b" d="M1785.42,2194.56c0,.55-9.22,1.52-25.79-.14a261.59,261.59,0,0,1-68.53-16.34,287,287,0,0,1-89.42-54.45c-29.7-26.36-56.22-62.62-73.15-105.32a289.69,289.69,0,0,1-20.14-126.67c2.61-39.51,13.07-75.21,30.76-100.23,17.5-25.35,40.71-37.63,56.88-41.88a69.72,69.72,0,0,1,19.19-2.58c4.42.12,6.7.61,6.69,1,.06,1.11-9.32.58-24.52,5.95-14.93,5.34-35.92,18-51.37,42.14-30.59,48.1-39.12,135.91-6.62,218,16.3,41,41.36,75.88,69.54,101.67a293.87,293.87,0,0,0,85.24,54.75C1748.19,2192.81,1785.83,2192.07,1785.42,2194.56Z" />
  <path class="b" d="M2309.26,2213.94c-3.22,0-5.66-92.73-5.43-207.09s3-207.09,6.26-207.09,5.67,92.72,5.44,207.12S2312.5,2214,2309.26,2213.94Z" />
  <path class="ab" d="M1484.8,1748.59c2.46-50.16,7.72-106.83,7.72-106.83s124-13.67,131.53-141.77,0-423.54,0-423.54l-225.87-115L1149.71,1157.5,1187.36,1798,1416,1812.56C1452,1814.85,1483,1786.14,1484.8,1748.59Z" />
  <path class="ad" d="M1507.15,1398.64c.36.1.38,2.39-2,5.51a17.6,17.6,0,0,1-14.27,6.29c-14.39-.69-28.24-16.61-33.35-36a61.39,61.39,0,0,1-.62-28.48c1.54-8.48,6.42-17,13.49-19.3a12.11,12.11,0,0,1,9.54.22,10.85,10.85,0,0,1,5.07,5.16c1.68,3.82.38,6.13.06,6-.53,0-.39-2.13-2.26-4.53a8.28,8.28,0,0,0-10.67-2.25c-4.76,2.15-8,8.24-9.24,16a59.84,59.84,0,0,0,1,25.39c4.49,17.4,16.56,31.64,27.3,32.93a16.2,16.2,0,0,0,12.09-3.31C1505.81,1400.24,1506.68,1398.43,1507.15,1398.64Z" />
  <path class="b" d="M1701.07,1007.3c-17.27-59-80-88.27-137.08-104.45-86.89-24.63-181-35.53-265.94-4.27s-187,86.25-187,180.06c-50.1-4.13-78.74,39.79-98.64,94.19a359.77,359.77,0,0,0-21.31,103.36l-.82-.28c-6.44,122.79-40.65,291.94-120.25,382.74-43.95,50.14-107.25,84.78-132.86,147.22-22.26,54.27-10.74,118.4-31.8,173.2-18.58,48.36-59.74,82.7-89.23,124.77-64.26,91.63-68.64,221.12-21.42,323.39s140.76,177.12,244.61,211.4,217,30.53,322.68,3c78-20.33,153.94-53.95,216.13-107.09s109.89-127,124.11-209.49c15.83-91.81-9.87-185-28.77-276.2-59.79-288.45-42.71-303.44,32.74-571,1.7-4.71,2.76-9.63,4.06-14.48,1-3.54,2-6.95,3-10.59l-.15,0a164.8,164.8,0,0,0,3.53-32c-21.84,8.6-48.23,2.89-65-14.06s-23-44.26-15.36-67.26c8.76-26.46,33-44.13,58-54.62s51.74-15.68,76.2-27.31c51.89-24.69,87.86-76,112.34-129.63C1699.94,1090.23,1712.74,1047.13,1701.07,1007.3Z" />
  <path class="f" d="M1516,1404.12c.78-.33,5.16,8,11.83,22.21s15.62,34.21,25.57,57.22l1.87,4.36-4.76.4-22.87,2c-15.68,1-28.76,2.9-44,2.73a8,8,0,0,1-5.8-5.1,13.08,13.08,0,0,1-.34-6.24c.66-3.54,1.42-6.15,2.12-9.12l4-15.92c5-19.42,8.51-31.31,9.46-31.11s-.89,12.52-4.62,32.19l-3.13,16.08c-1.15,5.43-3.12,13.55-.2,12.92,11.19-.48,27.14-2.35,41.92-3.43l22.88-1.82-2.87,4.76c-9.63-23.13-17.78-43.5-23.35-58.16S1515.24,1404.44,1516,1404.12Z" />
  <path class="b" d="M746.72,3296.34,1743.19,3266l433.39,1693.1-79.82,1942.12H1569.34l65.35-1900.77L1249.24,3821.76l59.38,3154.71-532.47,7.85L720.05,4019c-2.33-82.41-29.47-268.36-19.36-350.11Z" />
  <path class="ae" d="M1382,3845.71c-.21,1.56-18.9.63-48.88-2.9s-71.22-9.85-116.39-18.92S1131,3804.67,1102,3796.33s-46.61-14.68-46.2-16.22c.89-3.25,73.24,14.29,163.18,32.31C1308.87,3830.59,1382.38,3842.37,1382,3845.71Z" />
  <path class="ae" d="M2092,6794.66c0,3.25-119.41,5.86-266.67,5.86s-266.69-2.61-266.69-5.86,119.37-5.84,266.69-5.84S2092,6791.43,2092,6794.66Z" />
  <path class="ae" d="M1303.85,6894.52c0,3.24-115.83,5.86-258.7,5.86s-258.73-2.62-258.73-5.86,115.82-5.84,258.73-5.84S1303.85,6891.29,1303.85,6894.52Z" />
  <path class="ae" d="M1235.26,6886.44c-3.23.05-17.23-689.3-31.28-1539.48-14-850.49-22.8-1539.79-19.57-1539.83s17.24,689.14,31.28,1539.63C1229.73,6197,1238.49,6886.37,1235.26,6886.44Z" />
  <path class="ae" d="M2021.13,6794.66c-.2,0-.28-3.12-.24-9.17.12-6.63.28-15.54.49-26.93.7-24.3,1.7-59,3-103.48,3.14-90.46,7.65-220.3,13.21-380.49,12.3-321.75,29.26-765.25,48-1255.12.17-4.52.36-9,.52-13.21l.18,1.67c-118.11-472.9-224.85-900.34-302.24-1210.26-38-154.37-68.75-279.45-90.18-366.6-10.28-42.84-18.31-76.35-23.93-99.77-2.51-11-4.47-19.59-5.94-26-1.28-5.88-1.83-8.91-1.63-9s1.13,2.9,2.79,8.67c1.73,6.32,4.07,14.86,7,25.72,6.13,23.31,14.87,56.62,26.06,99.25,22.29,86.9,54.28,211.67,93.77,365.69,78.26,309.69,186.18,736.83,305.59,1209.41l.21.81,0,.85c-.16,4.15-.35,8.67-.53,13.22-20.07,489.8-38.24,933.23-51.43,1255-7.12,160.13-12.89,289.89-16.92,380.34-2.24,44.39-4,79.11-5.2,103.39-.69,11.36-1.24,20.27-1.65,26.88C2021.66,6791.59,2021.33,6794.68,2021.13,6794.66Z" />
  <path class="ae" d="M1849.22,4966.73c.55,3.19-51.63,14.8-116.51,26-48.46,8.34-90.3,14-108.58,15.07l0-4.56c6.06,1.67,9.33,3,9.2,3.77s-3.63,1.06-9.91.79l-13.63-.59,13.6-4c17.57-5.14,58.93-13.72,107.37-22C1795.62,4970,1848.67,4963.53,1849.22,4966.73Z" />
  <path class="ae" d="M1839.15,5031.35c-.44,3.24-47.26-.36-104.91-4.79s-104.46-8.23-104.38-11.52,47.28-4.72,105.29-.15S1839.58,5028.21,1839.15,5031.35Z" />
  <path class="af" d="M742.29,3332.12c24.1,33.9,58.45,45.8,98.38,52.34s80.65,2.17,120.85-2.29c257.21-28.52,529.76-54.86,781.67-116.22-326.07,18.28-670.4,12.11-996.47,30.39,0,0-2.78,22.43-3.44,27.83Z" />
  <g class="v">
    <polygon points="1078.39 3791.72 1262.1 4504.85 1249.24 3821.76 1078.39 3791.72" />
  </g>
</svg>